<?xml version="1.0" encoding="UTF-8" standalone="no"?>
<svg
   xmlns:dc="http://purl.org/dc/elements/1.1/"
   xmlns:cc="http://creativecommons.org/ns#"
   xmlns:rdf="http://www.w3.org/1999/02/22-rdf-syntax-ns#"
   xmlns:svg="http://www.w3.org/2000/svg"
   xmlns="http://www.w3.org/2000/svg"
   viewBox="0 0 128.75 45"
   height="45"
   width="128.75"
   xml:space="preserve"
   version="1.1"
   id="svg2"><metadata
     id="metadata8"><rdf:RDF><cc:Work
         rdf:about=""><dc:format>image/svg+xml</dc:format><dc:type
           rdf:resource="http://purl.org/dc/dcmitype/StillImage" /></cc:Work></rdf:RDF></metadata><defs
     id="defs6"><clipPath
       id="clipPath16"
       clipPathUnits="userSpaceOnUse"><path
         id="path18"
         d="M 0,36 103,36 103,0 0,0 0,36 Z" /></clipPath></defs><g
     transform="matrix(1.25,0,0,-1.25,0,45)"
     id="g10"><g
       id="g12"><g
         clip-path="url(#clipPath16)"
         id="g14"><g
           transform="translate(45.8481,26.7471)"
           id="g20"><path
             id="path22"
             style="fill:#67b7bf;fill-opacity:1;fill-rule:nonzero;stroke:none"
             d="M 0,0 C 0,0.199 0.072,0.361 0.198,0.486 0.341,0.63 0.504,0.684 0.684,0.684 0.882,0.684 1.026,0.611 1.169,0.486 1.313,0.342 1.368,0.18 1.368,0 l 0,-5.112 c 0,-0.702 -0.252,-1.296 -0.738,-1.781 -0.504,-0.486 -1.098,-0.738 -1.782,-0.738 -0.198,0 -0.342,0.072 -0.486,0.196 -0.144,0.127 -0.198,0.289 -0.198,0.488 0,0.197 0.072,0.359 0.198,0.485 0.126,0.144 0.288,0.198 0.486,0.198 0.324,0 0.593,0.109 0.81,0.342 C -0.108,-5.705 0,-5.418 0,-5.112 L 0,0 Z" /></g><g
           transform="translate(53.2637,22.2295)"
           id="g24"><path
             id="path26"
             style="fill:#67b7bf;fill-opacity:1;fill-rule:nonzero;stroke:none"
             d="M 0,0 -1.116,2.7 -2.232,0 0,0 Z m -4.266,-3.079 c -0.18,0.073 -0.306,0.2 -0.378,0.379 -0.072,0.179 -0.072,0.342 0,0.521 l 0.738,1.783 2.142,5.167 c 0,0.017 0.018,0.035 0.036,0.053 l 0.018,0.035 c 0.019,0.019 0.019,0.019 0.019,0.037 0,0 0,0.018 0.017,0.036 l 0.018,0.018 c 0,0 0,0.017 0.018,0.017 0.018,0.019 0.018,0.019 0.018,0.037 l 0.018,0.017 c 0.018,0.019 0.018,0.019 0.037,0.019 l 0.018,0.019 c 0.017,0.016 0.017,0.016 0.035,0.016 l 0.018,0.019 c 0.018,0.019 0.036,0.019 0.036,0.019 0,0 0.019,0.016 0.036,0.016 l 0.018,0.019 0.018,0.019 c 0.018,0 0.036,0 0.036,0.016 0,0 0.018,0 0.037,0.019 l 0.018,0 0.035,0 0.036,0 0.037,0 0.035,0 0.036,0 0.036,0 0.037,0 0.035,0 c 0,0 0.018,0 0.036,-0.019 l 0.018,0 C -0.9,5.167 -0.864,5.148 -0.828,5.129 L -0.81,5.113 c 0.018,-0.019 0.036,-0.019 0.036,-0.019 l 0.018,-0.019 c 0.019,-0.016 0.019,-0.016 0.036,-0.016 0,0 0.018,0 0.018,-0.019 0.018,-0.019 0.018,-0.019 0.036,-0.019 0,0 0,-0.017 0.019,-0.017 C -0.63,4.986 -0.63,4.986 -0.63,4.967 L -0.611,4.95 c 0.017,-0.018 0.017,-0.018 0.017,-0.036 0,0 0,-0.018 0.019,-0.036 C -0.558,4.859 -0.558,4.859 -0.558,4.842 -0.54,4.824 -0.54,4.806 -0.521,4.788 L 1.62,-0.379 2.358,-2.16 c 0.073,-0.18 0.073,-0.342 0,-0.523 C 2.286,-2.862 2.16,-2.987 1.98,-3.06 1.891,-3.096 1.8,-3.114 1.71,-3.114 c -0.306,0 -0.522,0.143 -0.63,0.431 l -0.558,1.35 -3.366,0 -0.558,-1.35 c -0.108,-0.288 -0.324,-0.431 -0.63,-0.431 l -0.126,0 c 0,0 -0.018,0 -0.108,0.035" /></g><g
           transform="translate(64.7119,27.4312)"
           id="g28"><path
             id="path30"
             style="fill:#67b7bf;fill-opacity:1;fill-rule:nonzero;stroke:none"
             d="m 0,0 c 0.144,-0.035 0.27,-0.126 0.36,-0.252 0.09,-0.125 0.144,-0.252 0.144,-0.414 l 0,-6.984 C 0.504,-7.848 0.433,-7.992 0.306,-8.135 0.162,-8.28 0,-8.334 -0.18,-8.334 c -0.198,0 -0.36,0.072 -0.486,0.199 -0.126,0.125 -0.198,0.287 -0.198,0.485 l 0,4.519 -2.16,-3.583 C -3.042,-6.731 -3.042,-6.75 -3.042,-6.75 L -3.06,-6.769 c -0.018,-0.016 -0.018,-0.016 -0.036,-0.035 l -0.018,-0.019 -0.018,-0.016 c 0,0 -0.018,-0.019 -0.036,-0.037 l -0.018,-0.017 c -0.018,0 -0.018,-0.019 -0.037,-0.019 0,0 -0.017,-0.018 -0.035,-0.018 -0.018,0 -0.018,-0.018 -0.018,-0.018 0,0 -0.018,0 -0.036,-0.017 -0.09,-0.037 -0.18,-0.055 -0.27,-0.055 l -0.019,0 -0.017,0 c -0.054,0 -0.109,0.018 -0.144,0.036 l -0.018,0 -0.018,0 c -0.018,0 -0.036,0.019 -0.036,0.019 l -0.019,0.017 c -0.017,0 -0.035,0.018 -0.053,0.018 -0.018,0 -0.035,0.018 -0.035,0.037 l -0.019,0.017 c -0.019,0.018 -0.019,0.018 -0.036,0.037 l -0.018,0.016 -0.018,0.019 c 0,0 -0.018,0.019 -0.035,0.035 0,0.019 -0.019,0.019 -0.019,0.019 0,0 -0.018,0.019 -0.036,0.036 l -2.16,3.583 0,-4.519 c 0,-0.198 -0.072,-0.342 -0.198,-0.485 -0.144,-0.145 -0.306,-0.199 -0.487,-0.199 -0.197,0 -0.341,0.072 -0.485,0.199 -0.145,0.125 -0.198,0.287 -0.198,0.485 l 0,6.984 c 0,0.162 0.053,0.289 0.144,0.414 0.09,0.126 0.216,0.217 0.36,0.252 0.144,0.036 0.288,0.036 0.432,-0.019 0.144,-0.054 0.252,-0.161 0.342,-0.287 l 2.862,-4.733 2.862,4.733 c 0.072,0.126 0.18,0.233 0.324,0.287 0.144,0.055 0.216,0.092 0.216,0.092 0,0 -0.054,-0.037 0.108,-0.073" /></g><g
           transform="translate(72.0557,20.4658)"
           id="g32"><path
             id="path34"
             style="fill:#67b7bf;fill-opacity:1;fill-rule:nonzero;stroke:none"
             d="M 0,0 C 0.198,0 0.343,-0.073 0.486,-0.198 0.63,-0.342 0.684,-0.504 0.684,-0.685 0.684,-0.883 0.612,-1.027 0.486,-1.17 0.36,-1.315 0.198,-1.369 0,-1.369 l -4.212,0 c -0.197,0 -0.342,0.073 -0.486,0.199 -0.144,0.126 -0.198,0.287 -0.198,0.485 l 0,6.966 c 0,0.199 0.072,0.361 0.198,0.487 0.126,0.144 0.289,0.197 0.486,0.197 L 0,6.947 C 0.198,6.947 0.36,6.876 0.486,6.75 0.612,6.605 0.684,6.443 0.684,6.264 0.684,6.065 0.612,5.922 0.486,5.777 0.36,5.634 0.198,5.58 0,5.58 l -3.51,0.017 0,-2.105 2.538,0 c 0.199,0 0.361,-0.073 0.487,-0.199 0.143,-0.143 0.197,-0.305 0.197,-0.485 0,-0.181 -0.071,-0.361 -0.197,-0.486 C -0.63,2.196 -0.792,2.123 -0.972,2.123 l -2.538,0 0,-2.105 3.51,0 L 0,0 Z" /></g><g
           transform="translate(79.5977,19.3501)"
           id="g36"><path
             id="path38"
             style="fill:#67b7bf;fill-opacity:1;fill-rule:nonzero;stroke:none"
             d="m 0,0 0,0 -4.193,5.381 0,-4.969 c 0,-0.197 -0.073,-0.341 -0.199,-0.485 -0.126,-0.144 -0.288,-0.198 -0.486,-0.198 -0.197,0 -0.342,0.072 -0.486,0.198 -0.144,0.127 -0.198,0.288 -0.198,0.485 l 0,6.985 c 0,0.145 0.037,0.288 0.126,0.396 0.09,0.126 0.198,0.199 0.342,0.253 0.145,0.054 0.271,0.054 0.414,0.017 0.144,-0.036 0.252,-0.125 0.342,-0.234 l 4.176,-5.4 0,4.968 c 0,0.199 0.072,0.342 0.198,0.486 0.145,0.144 0.306,0.198 0.486,0.198 0.18,0 0.342,-0.073 0.486,-0.198 C 1.152,7.758 1.206,7.596 1.206,7.397 l 0,-6.985 0,-0.035 0,-0.035 0,-0.037 0,-0.035 0,-0.037 c 0,-0.018 0,-0.036 -0.018,-0.036 0,0 0,-0.018 -0.018,-0.035 0,-0.019 0,-0.019 -0.018,-0.037 L 1.134,0.089 1.116,0.054 c 0,0 -0.017,-0.019 -0.017,-0.036 L 1.08,0 c 0,0 -0.018,-0.019 -0.018,-0.038 L 1.044,-0.054 1.026,-0.073 1.008,-0.091 c 0,0 0,-0.017 -0.018,-0.017 -0.017,-0.018 -0.017,-0.018 -0.036,-0.018 0.019,0 0.019,0 0,0 C 0.919,-0.146 0.9,-0.162 0.864,-0.181 0.828,-0.199 0.811,-0.217 0.774,-0.217 c -0.018,0 -0.018,-0.017 -0.018,0 C 0.72,-0.234 0.685,-0.234 0.666,-0.234 l -0.018,0 -0.108,0 -0.071,0 -0.019,0 c -0.017,0 -0.036,0 -0.054,0.017 l -0.018,0 c -0.018,0 -0.036,0 -0.054,0.018 0,0 -0.017,0 -0.017,0.018 -0.019,0 -0.037,0.019 -0.055,0.019 0,0 -0.018,0 -0.018,0.016 -0.018,0 -0.036,0.02 -0.036,0.02 -0.017,0 -0.017,0.018 -0.017,0.018 -0.019,0 -0.019,0.017 -0.037,0.035 -0.018,0 -0.018,0.019 -0.018,0.019 C 0.108,-0.038 0.09,-0.019 0.072,0 L 0.055,0.018 0,0 Z" /></g><g
           transform="translate(84.1338,20.4834)"
           id="g40"><path
             id="path42"
             style="fill:#67b7bf;fill-opacity:1;fill-rule:nonzero;stroke:none"
             d="m 0,0 1.062,0.018 c 0.774,0 1.421,0.27 1.98,0.81 0.54,0.539 0.81,1.206 0.81,1.962 0,0.756 -0.27,1.423 -0.81,1.962 C 2.502,5.292 1.836,5.579 1.08,5.579 L 0,5.579 0,0 Z m -0.702,-1.387 c -0.18,0 -0.342,0.073 -0.485,0.2 -0.145,0.143 -0.199,0.304 -0.199,0.485 l 0,6.966 c 0,0.199 0.073,0.361 0.199,0.486 0.125,0.125 0.287,0.198 0.485,0.198 l 1.764,0 C 2.214,6.948 3.187,6.534 3.996,5.724 4.806,4.914 5.22,3.924 5.22,2.79 5.22,1.638 4.806,0.667 3.996,-0.145 3.187,-0.954 2.196,-1.368 1.062,-1.368 l -1.764,-0.019 z" /></g><g
           transform="translate(94.7539,26.0625)"
           id="g44"><path
             id="path46"
             style="fill:#67b7bf;fill-opacity:1;fill-rule:nonzero;stroke:none"
             d="m 0,0 c -0.774,0 -1.422,-0.27 -1.979,-0.827 -0.559,-0.558 -0.829,-1.206 -0.829,-1.981 0,-0.773 0.27,-1.421 0.829,-1.979 0.539,-0.558 1.205,-0.829 1.979,-0.829 0.774,0 1.44,0.271 1.979,0.829 0.542,0.54 0.829,1.206 0.829,1.979 0,0.775 -0.27,1.442 -0.829,1.981 C 1.422,-0.27 0.774,0 0,0 m 0,-6.966 c -1.152,0 -2.143,0.415 -2.952,1.225 -0.811,0.81 -1.224,1.8 -1.224,2.952 0,1.152 0.413,2.142 1.224,2.952 0.809,0.81 1.8,1.225 2.952,1.225 1.152,0 2.143,-0.415 2.952,-1.225 0.811,-0.81 1.224,-1.8 1.224,-2.952 0,-1.152 -0.413,-2.142 -1.224,-2.952 C 2.143,-6.551 1.152,-6.966 0,-6.966" /></g><g
           transform="translate(44.6963,16.8652)"
           id="g48"><path
             id="path50"
             style="fill:#67b7bf;fill-opacity:1;fill-rule:nonzero;stroke:none"
             d="M 0,0 C 0.198,0 0.359,-0.072 0.485,-0.197 0.63,-0.323 0.684,-0.486 0.684,-0.684 l 0,-6.3 3.077,0 c 0.198,0 0.36,-0.073 0.487,-0.198 0.126,-0.126 0.197,-0.287 0.197,-0.486 0,-0.197 -0.071,-0.36 -0.197,-0.485 -0.144,-0.145 -0.307,-0.2 -0.487,-0.2 l -3.78,0 c -0.197,0 -0.36,0.073 -0.486,0.2 -0.143,0.125 -0.197,0.288 -0.197,0.485 l 0,6.984 c 0,0.198 0.072,0.361 0.197,0.487 C -0.342,-0.072 -0.18,0 0,0" /></g><g
           transform="translate(50.96,8.5127)"
           id="g52"><path
             id="path54"
             style="fill:#67b7bf;fill-opacity:1;fill-rule:nonzero;stroke:none"
             d="M 0,0 C -0.198,0 -0.36,0.072 -0.486,0.199 -0.63,0.324 -0.684,0.487 -0.684,0.685 l 0,6.949 c 0,0.196 0.072,0.358 0.198,0.484 C -0.36,8.263 -0.198,8.316 0,8.316 0.198,8.316 0.36,8.245 0.486,8.118 0.63,7.992 0.684,7.83 0.684,7.634 l 0,-6.949 C 0.684,0.487 0.612,0.324 0.486,0.199 0.342,0.055 0.18,0 0,0" /></g><g
           transform="translate(57.1875,8.5127)"
           id="g56"><path
             id="path58"
             style="fill:#67b7bf;fill-opacity:1;fill-rule:nonzero;stroke:none"
             d="m 0,0 c -1.151,0 -2.124,0.415 -2.952,1.225 -0.81,0.809 -1.224,1.799 -1.224,2.952 0,1.152 0.414,2.123 1.224,2.953 0.81,0.808 1.801,1.223 2.952,1.223 0.937,0 1.8,-0.289 2.538,-0.865 C 2.683,7.38 2.772,7.219 2.809,7.038 2.826,6.841 2.79,6.68 2.664,6.517 2.557,6.372 2.395,6.283 2.215,6.246 2.017,6.229 1.854,6.265 1.692,6.372 1.188,6.75 0.63,6.949 0,6.949 -0.773,6.949 -1.421,6.68 -1.962,6.138 -2.502,5.599 -2.771,4.934 -2.771,4.177 c 0,-0.774 0.269,-1.422 0.809,-1.962 0.541,-0.54 1.206,-0.81 1.962,-0.81 0.721,0 1.351,0.233 1.872,0.719 0.145,0.126 0.307,0.181 0.504,0.181 0.198,0 0.343,-0.09 0.486,-0.235 C 2.988,1.927 3.042,1.765 3.042,1.566 3.042,1.368 2.952,1.225 2.826,1.08 2.017,0.36 1.08,0 0,0" /></g><g
           transform="translate(66.458,9.8809)"
           id="g60"><path
             id="path62"
             style="fill:#67b7bf;fill-opacity:1;fill-rule:nonzero;stroke:none"
             d="M 0,0 C 0.198,0 0.359,-0.072 0.486,-0.197 0.63,-0.342 0.684,-0.504 0.684,-0.684 0.684,-0.881 0.612,-1.044 0.486,-1.169 0.359,-1.313 0.198,-1.368 0,-1.368 l -4.212,0 c -0.198,0 -0.36,0.072 -0.486,0.199 -0.144,0.125 -0.198,0.288 -0.198,0.485 l 0,6.985 c 0,0.197 0.072,0.36 0.198,0.486 0.126,0.144 0.288,0.197 0.486,0.197 L 0,6.966 C 0.198,6.966 0.359,6.895 0.486,6.77 0.612,6.624 0.684,6.462 0.684,6.281 0.684,6.103 0.612,5.923 0.486,5.797 0.359,5.652 0.198,5.599 0,5.599 l -3.528,0.017 0,-2.124 2.538,0 c 0.198,0 0.36,-0.072 0.486,-0.197 C -0.36,3.15 -0.306,2.988 -0.306,2.809 -0.306,2.611 -0.378,2.448 -0.504,2.323 -0.648,2.196 -0.81,2.124 -0.99,2.124 l -2.538,0 L -3.528,0 0,0 Z" /></g><g
           transform="translate(74.0176,8.7656)"
           id="g64"><path
             id="path66"
             style="fill:#67b7bf;fill-opacity:1;fill-rule:nonzero;stroke:none"
             d="m 0,0 0,0 -4.193,5.4 0,-4.968 c 0,-0.198 -0.073,-0.361 -0.199,-0.486 -0.126,-0.144 -0.288,-0.199 -0.486,-0.199 -0.198,0 -0.359,0.072 -0.485,0.199 -0.145,0.125 -0.199,0.288 -0.199,0.486 l 0,6.984 c 0,0.144 0.036,0.288 0.126,0.396 0.09,0.126 0.199,0.198 0.342,0.251 0.144,0.054 0.271,0.054 0.414,0.018 0.144,-0.035 0.252,-0.125 0.342,-0.234 l 4.194,-5.4 0,4.988 c 0,0.196 0.073,0.358 0.199,0.485 C 0.198,8.063 0.36,8.117 0.54,8.117 0.72,8.117 0.9,8.046 1.026,7.92 1.17,7.793 1.224,7.631 1.224,7.435 l 0,-7.021 0,-0.037 0,-0.035 0,-0.036 0,-0.036 0,-0.036 c 0,-0.018 0,-0.037 -0.018,-0.037 0,0 0,-0.016 -0.018,-0.035 0,-0.019 0,-0.035 -0.018,-0.035 L 1.152,0.089 1.135,0.054 c 0,0 -0.019,-0.019 -0.019,-0.036 L 1.099,0 C 1.099,0 1.08,-0.019 1.08,-0.036 L 1.062,-0.054 1.044,-0.072 1.026,-0.09 c 0,0 0,-0.017 -0.017,-0.017 -0.019,-0.02 -0.019,-0.02 -0.037,-0.02 0.018,0 0.018,0 0,0 C 0.937,-0.145 0.918,-0.162 0.883,-0.181 0.846,-0.198 0.828,-0.216 0.792,-0.216 c -0.018,0 -0.018,-0.018 -0.018,0 C 0.738,-0.234 0.702,-0.234 0.666,-0.234 l -0.018,0 -0.108,0 -0.072,0 -0.018,0 c -0.017,0 -0.036,0 -0.054,0.018 l -0.018,0 c -0.018,0 -0.036,0 -0.054,0.018 0,0 -0.017,0 -0.017,0.017 -0.019,0 -0.036,0.019 -0.054,0.019 0,0 -0.019,0 -0.019,0.017 -0.018,0 -0.036,0.018 -0.036,0.018 -0.017,0 -0.017,0.02 -0.017,0.02 -0.019,0 -0.019,0.017 -0.036,0.035 -0.018,0 -0.018,0.018 -0.018,0.018 C 0.108,-0.036 0.09,-0.019 0.072,0 L 0.055,0.018 C 0.055,0.018 0,-0.019 0,0" /></g><g
           transform="translate(82.4775,10.9971)"
           id="g68"><path
             id="path70"
             style="fill:#67b7bf;fill-opacity:1;fill-rule:nonzero;stroke:none"
             d="m 0,0 c -0.036,-0.701 -0.306,-1.277 -0.827,-1.764 -0.523,-0.486 -1.152,-0.72 -1.891,-0.72 -0.63,0 -1.206,0.145 -1.71,0.415 -0.593,0.323 -0.99,0.792 -1.151,1.422 -0.055,0.179 -0.019,0.359 0.071,0.521 0.09,0.162 0.235,0.272 0.414,0.307 0.18,0.053 0.361,0.018 0.523,-0.074 0.161,-0.088 0.269,-0.233 0.305,-0.412 0.073,-0.253 0.252,-0.468 0.577,-0.613 0.288,-0.125 0.593,-0.198 0.953,-0.198 0.36,0 0.684,0.108 0.936,0.343 0.271,0.234 0.397,0.503 0.414,0.845 0,0.199 -0.071,0.378 -0.216,0.539 -0.234,0.253 -0.648,0.397 -1.206,0.397 l -0.017,0 -0.019,0 c -0.954,0.018 -1.674,0.288 -2.177,0.828 -0.415,0.45 -0.613,0.954 -0.577,1.548 0.036,0.702 0.306,1.297 0.828,1.765 0.522,0.485 1.152,0.719 1.89,0.719 0.63,0 1.206,-0.143 1.71,-0.414 C -0.575,5.13 -0.18,4.661 -0.018,4.032 0.036,3.853 0,3.673 -0.09,3.511 -0.18,3.349 -0.323,3.24 -0.504,3.204 -0.684,3.149 -0.864,3.187 -1.025,3.276 -1.187,3.365 -1.296,3.511 -1.331,3.69 -1.403,3.942 -1.602,4.157 -1.907,4.303 -2.178,4.429 -2.502,4.5 -2.861,4.5 -3.222,4.5 -3.546,4.392 -3.798,4.157 -4.05,3.925 -4.193,3.653 -4.211,3.312 c 0,-0.198 0.071,-0.377 0.215,-0.54 0.234,-0.251 0.648,-0.376 1.206,-0.396 l 0.036,0 C -1.8,2.357 -1.079,2.088 -0.575,1.549 -0.18,1.099 0.019,0.595 0,0" /></g><g
           transform="translate(84.71,8.5127)"
           id="g72"><path
             id="path74"
             style="fill:#67b7bf;fill-opacity:1;fill-rule:nonzero;stroke:none"
             d="M 0,0 C -0.198,0 -0.36,0.072 -0.486,0.199 -0.63,0.324 -0.684,0.487 -0.684,0.685 l 0,6.949 c 0,0.196 0.072,0.358 0.198,0.484 C -0.36,8.263 -0.198,8.316 0,8.316 0.198,8.316 0.36,8.245 0.486,8.118 0.63,7.992 0.685,7.83 0.685,7.634 l 0,-6.949 C 0.685,0.487 0.612,0.324 0.486,0.199 0.36,0.055 0.198,0 0,0" /></g><g
           transform="translate(92.8096,8.7656)"
           id="g76"><path
             id="path78"
             style="fill:#67b7bf;fill-opacity:1;fill-rule:nonzero;stroke:none"
             d="m 0,0 0,0 -4.193,5.4 0,-4.968 c 0,-0.198 -0.073,-0.361 -0.199,-0.486 -0.126,-0.144 -0.288,-0.199 -0.486,-0.199 -0.198,0 -0.359,0.072 -0.485,0.199 -0.145,0.125 -0.199,0.288 -0.199,0.486 l 0,6.984 c 0,0.144 0.037,0.288 0.126,0.396 0.09,0.126 0.199,0.198 0.342,0.251 0.144,0.054 0.27,0.054 0.414,0.018 0.145,-0.035 0.252,-0.125 0.342,-0.234 l 4.194,-5.4 0,4.988 c 0,0.196 0.072,0.358 0.198,0.485 C 0.198,8.063 0.36,8.117 0.54,8.117 0.721,8.117 0.9,8.046 1.026,7.92 1.17,7.793 1.225,7.631 1.225,7.435 l 0,-7.021 0,-0.037 0,-0.035 0,-0.036 0,-0.036 0,-0.036 c 0,-0.018 0,-0.037 -0.018,-0.037 0,0 0,-0.016 -0.019,-0.035 0,-0.019 0,-0.035 -0.018,-0.035 L 1.152,0.089 1.135,0.054 c 0,0 -0.019,-0.019 -0.019,-0.036 L 1.099,0 C 1.099,0 1.08,-0.019 1.08,-0.036 L 1.062,-0.054 1.044,-0.072 1.026,-0.09 c 0,0 0,-0.017 -0.018,-0.017 -0.018,-0.02 -0.018,-0.02 -0.035,-0.02 0.017,0 0.017,0 0,0 C 0.937,-0.145 0.918,-0.162 0.883,-0.181 0.847,-0.198 0.828,-0.216 0.792,-0.216 c -0.018,0 -0.018,-0.018 -0.018,0 C 0.738,-0.234 0.702,-0.234 0.666,-0.234 l -0.018,0 -0.089,0 -0.073,0 -0.017,0 c -0.019,0 -0.036,0 -0.055,0.018 l -0.018,0 c -0.017,0 -0.036,0 -0.053,0.018 0,0 -0.019,0 -0.019,0.017 -0.017,0 -0.036,0.019 -0.053,0.019 0,0 -0.019,0 -0.019,0.017 -0.018,0 -0.035,0.018 -0.035,0.018 -0.019,0 -0.019,0.02 -0.019,0.02 -0.018,0 -0.018,0.017 -0.036,0.035 -0.017,0 -0.017,0.018 -0.017,0.018 C 0.126,-0.036 0.108,-0.019 0.091,0 L 0.072,0.018 C 0.072,0.018 0,-0.019 0,0" /></g><g
           transform="translate(99.668,8.5312)"
           id="g80"><path
             id="path82"
             style="fill:#67b7bf;fill-opacity:1;fill-rule:nonzero;stroke:none"
             d="m 0,0 c -1.151,0 -2.142,0.415 -2.952,1.224 -0.81,0.81 -1.225,1.799 -1.225,2.953 0,1.15 0.415,2.123 1.225,2.95 0.81,0.811 1.801,1.225 2.952,1.225 0.936,0 1.782,-0.288 2.538,-0.864 C 2.682,7.381 2.771,7.219 2.808,7.02 2.826,6.84 2.79,6.661 2.664,6.516 2.556,6.373 2.394,6.281 2.214,6.246 2.016,6.211 1.854,6.265 1.691,6.373 1.187,6.75 0.63,6.948 0,6.948 c -0.773,0 -1.422,-0.27 -1.98,-0.809 -0.54,-0.541 -0.81,-1.207 -0.81,-1.962 0,-0.775 0.27,-1.423 0.81,-1.981 0.54,-0.54 1.207,-0.809 1.98,-0.809 0.72,0 1.35,0.232 1.872,0.718 0,0 0.018,0.018 0.036,0.038 l 0,1.53 -2.286,0 c -0.198,0 -0.36,0.071 -0.486,0.196 -0.144,0.146 -0.198,0.308 -0.198,0.486 0,0.199 0.072,0.361 0.198,0.487 0.126,0.144 0.288,0.198 0.486,0.198 l 2.97,0 C 2.79,5.04 2.952,4.969 3.078,4.842 3.222,4.698 3.276,4.536 3.276,4.355 L 3.258,0.666 C 3.258,0.469 3.186,0.306 3.06,0.181 2.934,0.036 2.771,-0.019 2.573,-0.019 2.412,-0.019 2.286,0.036 2.16,0.127 2.034,0.216 1.962,0.342 1.926,0.486 1.313,0.162 0.666,0 0,0" /></g><g
           transform="translate(18.0557,0)"
           id="g84"><path
             id="path86"
             style="fill:#67b7bf;fill-opacity:1;fill-rule:nonzero;stroke:none"
             d="m 0,0 c -9.918,0 -18,8.081 -18,18 0,9.917 8.082,18 18,18 C 9.918,36 18,27.917 18,18 18,14.039 16.74,10.296 14.364,7.146 13.95,6.604 13.176,6.497 12.618,6.912 12.078,7.325 11.97,8.1 12.384,8.658 14.436,11.357 15.517,14.597 15.517,18 15.517,26.55 8.55,33.516 0,33.516 -8.55,33.516 -15.498,26.55 -15.498,18 c 0,-8.55 6.966,-15.517 15.517,-15.517 2.915,0 5.705,0.792 8.153,2.322 L 6.606,6.371 C 4.608,5.237 2.34,4.643 0.019,4.643 c -7.363,0 -13.374,5.994 -13.374,13.375 0,7.379 5.994,13.356 13.355,13.356 7.362,0 13.374,-5.995 13.374,-13.374 0,-2.683 -0.792,-5.257 -2.286,-7.471 -0.216,-0.305 -0.54,-0.504 -0.918,-0.54 -0.378,-0.035 -0.738,0.09 -1.008,0.361 l -3.384,3.383 c -0.378,0.378 -0.467,0.972 -0.234,1.441 0.45,0.881 0.684,1.835 0.684,2.826 0,3.438 -2.808,6.246 -6.246,6.246 -3.438,0 -6.246,-2.808 -6.246,-6.246 0,-3.438 2.808,-6.246 6.246,-6.246 0.99,0 1.944,0.233 2.826,0.684 0.612,0.305 1.368,0.071 1.674,-0.542 C 4.789,11.285 4.554,10.529 3.942,10.224 2.718,9.611 1.35,9.27 -0.018,9.27 c -4.806,0 -8.73,3.923 -8.73,8.73 0,4.805 3.924,8.729 8.73,8.729 4.807,0 8.73,-3.924 8.73,-8.729 0,-1.063 -0.197,-2.125 -0.576,-3.115 l 1.638,-1.638 c 0.72,1.477 1.08,3.096 1.08,4.753 0,5.993 -4.878,10.872 -10.872,10.872 -5.994,0 -10.854,-4.879 -10.854,-10.872 0,-5.995 4.878,-10.873 10.872,-10.873 2.178,0 4.284,0.648 6.084,1.854 0.486,0.342 1.152,0.27 1.584,-0.144 L 10.98,5.508 C 11.232,5.255 11.358,4.896 11.34,4.535 11.322,4.176 11.143,3.851 10.854,3.635 7.704,1.259 3.96,0 0,0" /></g></g></g></g></svg>