<?xml version="1.0" encoding="UTF-8" standalone="no"?>
<svg
   xmlns:dc="http://purl.org/dc/elements/1.1/"
   xmlns:cc="http://creativecommons.org/ns#"
   xmlns:rdf="http://www.w3.org/1999/02/22-rdf-syntax-ns#"
   xmlns:svg="http://www.w3.org/2000/svg"
   xmlns="http://www.w3.org/2000/svg"
   viewBox="0 0 293.33334 94.666664"
   height="94.666664"
   width="293.33334"
   xml:space="preserve"
   id="svg2"
   version="1.1"><metadata
     id="metadata8"><rdf:RDF><cc:Work
         rdf:about=""><dc:format>image/svg+xml</dc:format><dc:type
           rdf:resource="http://purl.org/dc/dcmitype/StillImage" /></cc:Work></rdf:RDF></metadata><defs
     id="defs6"><clipPath
       id="clipPath18"
       clipPathUnits="userSpaceOnUse"><path
         id="path16"
         d="M 0,71 H 220 V 0 H 0 Z" /></clipPath></defs><g
     transform="matrix(1.3333333,0,0,-1.3333333,0,94.666667)"
     id="g10"><g
       id="g12"><g
         clip-path="url(#clipPath18)"
         id="g14"><g
           transform="translate(91.0146,46.4176)"
           id="g20"><path
             id="path22"
             style="fill:#00b8c1;fill-opacity:1;fill-rule:nonzero;stroke:none"
             d="m 0,0 c 0,-3.309 -0.647,-5.324 -2.122,-6.727 -1.151,-1.043 -2.806,-1.654 -4.496,-1.654 -2.158,0 -3.957,0.719 -5.611,2.266 l 2.805,3.417 c 0.611,-0.899 1.403,-1.366 2.338,-1.366 0.971,0 1.763,0.539 2.086,1.438 0.252,0.684 0.324,1.367 0.324,3.381 V 16.186 H 0 Z" /></g><g
           transform="translate(99.5396,46.4176)"
           id="g24"><path
             id="path26"
             style="fill:#00b8c1;fill-opacity:1;fill-rule:nonzero;stroke:none"
             d="m 0,0 c 0,-2.446 1.979,-4.388 4.388,-4.388 2.374,0 4.352,1.978 4.352,4.316 C 8.74,2.41 6.834,4.352 4.388,4.352 1.942,4.352 0,2.41 0,0 M 12.625,7.769 V -7.805 H 8.273 v 2.014 C 6.87,-7.554 5.323,-8.309 3.166,-8.309 c -4.389,0 -7.662,3.561 -7.662,8.309 0,4.676 3.309,8.272 7.589,8.272 2.122,0 3.669,-0.755 5.18,-2.517 v 2.014 z" /></g><g
           transform="translate(120.6895,54.1867)"
           id="g28"><path
             id="path30"
             style="fill:#00b8c1;fill-opacity:1;fill-rule:nonzero;stroke:none"
             d="m 0,0 v -1.798 c 1.438,1.654 2.841,2.301 4.748,2.301 2.158,0 3.669,-0.863 4.856,-2.841 1.223,1.906 2.913,2.841 5.107,2.841 1.871,0 3.525,-0.863 4.352,-2.23 0.576,-0.935 0.828,-2.05 0.828,-3.776 v -10.071 h -4.352 v 8.524 c 0,1.259 -0.073,1.835 -0.36,2.482 -0.396,0.863 -1.187,1.367 -2.195,1.367 -1.114,0 -2.086,-0.576 -2.553,-1.547 -0.324,-0.683 -0.468,-1.475 -0.468,-2.841 v -7.985 H 5.611 v 8.272 c 0,1.331 -0.072,2.014 -0.324,2.59 -0.359,0.899 -1.33,1.511 -2.338,1.511 -0.971,0 -2.014,-0.576 -2.446,-1.403 C 0.144,-5.251 0,-6.079 0,-7.589 v -7.985 H -4.353 V 0 Z" /></g><g
           transform="translate(155.9033,48.4675)"
           id="g32"><path
             id="path34"
             style="fill:#00b8c1;fill-opacity:1;fill-rule:nonzero;stroke:none"
             d="M 0,0 C -0.467,2.015 -1.762,3.094 -3.705,3.094 -5.647,3.094 -6.978,1.942 -7.374,0 Z m -7.517,-2.77 c 0.108,-2.697 1.438,-4.172 3.812,-4.172 1.655,0 2.698,0.612 3.705,2.087 l 4.029,-0.648 c -1.331,-3.201 -3.957,-4.856 -7.626,-4.856 -5.071,0 -8.381,3.274 -8.381,8.273 0,5.036 3.202,8.309 8.165,8.309 4.964,0 7.985,-3.202 7.985,-8.417 V -2.77 Z" /></g><g
           transform="translate(167.7373,54.1867)"
           id="g36"><path
             id="path38"
             style="fill:#00b8c1;fill-opacity:1;fill-rule:nonzero;stroke:none"
             d="m 0,0 v -1.942 c 1.367,1.762 2.77,2.445 4.892,2.445 1.834,0 3.489,-0.683 4.532,-1.87 0.899,-1.043 1.223,-2.194 1.223,-4.316 v -9.891 H 6.294 v 8.632 c 0,1.295 -0.107,1.978 -0.431,2.518 C 5.431,-3.669 4.46,-3.201 3.309,-3.201 1.079,-3.201 0,-4.568 0,-7.518 v -8.056 H -4.352 V 0 Z" /></g><g
           transform="translate(186.2256,46.4176)"
           id="g40"><path
             id="path42"
             style="fill:#00b8c1;fill-opacity:1;fill-rule:nonzero;stroke:none"
             d="m 0,0 c 0,-2.446 1.978,-4.388 4.388,-4.388 2.374,0 4.352,1.978 4.352,4.316 C 8.74,2.41 6.834,4.352 4.388,4.352 1.942,4.352 0,2.41 0,0 M 12.625,19.135 V -7.805 H 8.272 v 2.014 C 6.87,-7.554 5.323,-8.309 3.165,-8.309 c -4.388,0 -7.661,3.561 -7.661,8.309 0,4.676 3.309,8.272 7.589,8.272 2.122,0 3.669,-0.755 5.179,-2.517 v 13.38 z" /></g><g
           transform="translate(206.6914,46.4533)"
           id="g44"><path
             id="path46"
             style="fill:#00b8c1;fill-opacity:1;fill-rule:nonzero;stroke:none"
             d="m 0,0 c 0,-2.482 1.942,-4.424 4.424,-4.424 2.41,0 4.389,1.942 4.389,4.352 0,2.446 -1.979,4.388 -4.425,4.388 C 2.015,4.316 0,2.338 0,0 m 13.309,-0.036 c 0,-4.927 -3.669,-8.309 -8.993,-8.309 -5.215,0 -8.812,3.417 -8.812,8.417 0,4.748 3.741,8.165 8.956,8.165 5.216,0 8.849,-3.381 8.849,-8.273" /></g><g
           transform="translate(98.1641,12.9474)"
           id="g48"><path
             id="path50"
             style="fill:#00b8c1;fill-opacity:1;fill-rule:nonzero;stroke:none"
             d="m 0,0 h 6.211 v -3.424 h -10.15 v 20.21 H 0 Z" /></g><path
           id="path52"
           style="fill:#00b8c1;fill-opacity:1;fill-rule:nonzero;stroke:none"
           d="m 110.254,9.524 h -3.666 v 13.12 h 3.666 z m 0.393,18.664 c 0,-1.212 -0.999,-2.212 -2.211,-2.212 -1.242,0 -2.212,1 -2.212,2.242 0,1.182 1,2.182 2.212,2.182 1.242,0 2.211,-0.97 2.211,-2.212" /><g
           transform="translate(123.5552,18.6437)"
           id="g54"><path
             id="path56"
             style="fill:#00b8c1;fill-opacity:1;fill-rule:nonzero;stroke:none"
             d="m 0,0 c -1.061,0.818 -1.878,1.121 -2.969,1.121 -2.182,0 -3.787,-1.576 -3.787,-3.697 0,-2.12 1.605,-3.666 3.787,-3.666 1.121,0 1.969,0.303 2.969,1.091 v -3.576 c -1.182,-0.606 -2.151,-0.817 -3.363,-0.817 -4.06,0 -7.181,2.999 -7.181,6.908 0,3.999 3.121,7.059 7.211,7.059 1.303,0 2.272,-0.242 3.333,-0.787 z" /></g><g
           transform="translate(135.7358,17.8254)"
           id="g58"><path
             id="path60"
             style="fill:#00b8c1;fill-opacity:1;fill-rule:nonzero;stroke:none"
             d="m 0,0 c -0.394,1.697 -1.484,2.606 -3.121,2.606 -1.636,0 -2.757,-0.97 -3.09,-2.606 z m -6.333,-2.333 c 0.091,-2.272 1.212,-3.515 3.212,-3.515 1.394,0 2.273,0.515 3.121,1.758 l 3.394,-0.546 c -1.122,-2.697 -3.333,-4.09 -6.424,-4.09 -4.272,0 -7.059,2.757 -7.059,6.969 0,4.242 2.696,6.999 6.878,6.999 4.181,0 6.726,-2.697 6.726,-7.09 v -0.485 z" /></g><g
           transform="translate(145.7051,22.6432)"
           id="g62"><path
             id="path64"
             style="fill:#00b8c1;fill-opacity:1;fill-rule:nonzero;stroke:none"
             d="m 0,0 v -1.636 c 1.151,1.484 2.333,2.06 4.121,2.06 1.545,0 2.939,-0.576 3.817,-1.575 C 8.696,-2.03 8.969,-3 8.969,-4.788 V -13.12 H 5.302 v 7.272 c 0,1.091 -0.091,1.666 -0.363,2.121 -0.364,0.636 -1.182,1.03 -2.151,1.03 C 0.909,-2.697 0,-3.848 0,-6.333 V -13.12 H -3.667 V 0 Z" /></g><g
           transform="translate(165.3696,19.5827)"
           id="g66"><path
             id="path68"
             style="fill:#00b8c1;fill-opacity:1;fill-rule:nonzero;stroke:none"
             d="m 0,0 c -0.788,0.606 -1.454,0.879 -2.181,0.879 -0.819,0 -1.424,-0.485 -1.424,-1.121 0,-0.606 0.394,-0.879 2.09,-1.455 1.485,-0.514 1.939,-0.727 2.545,-1.181 0.97,-0.667 1.455,-1.667 1.455,-2.909 0,-2.757 -2.273,-4.696 -5.515,-4.696 -1.908,0 -3.696,0.787 -4.969,2.181 l 1.909,2.242 c 1.061,-1.06 2.03,-1.545 3.121,-1.545 0.939,0 1.666,0.636 1.666,1.455 0,0.757 -0.363,1.029 -2.03,1.635 -1.636,0.606 -1.939,0.728 -2.515,1.152 -0.878,0.606 -1.302,1.515 -1.302,2.727 0,2.454 1.939,4.181 4.696,4.181 1.636,0 3,-0.454 4.272,-1.394 z" /></g><path
           id="path70"
           style="fill:#00b8c1;fill-opacity:1;fill-rule:nonzero;stroke:none"
           d="m 174.066,9.524 h -3.667 v 13.12 h 3.667 z m 0.394,18.664 c 0,-1.212 -1,-2.212 -2.211,-2.212 -1.243,0 -2.212,1 -2.212,2.242 0,1.182 0.999,2.182 2.212,2.182 1.242,0 2.211,-0.97 2.211,-2.212" /><g
           transform="translate(181.1865,22.6432)"
           id="g72"><path
             id="path74"
             style="fill:#00b8c1;fill-opacity:1;fill-rule:nonzero;stroke:none"
             d="m 0,0 v -1.636 c 1.151,1.484 2.333,2.06 4.121,2.06 1.545,0 2.939,-0.576 3.817,-1.575 C 8.696,-2.03 8.969,-3 8.969,-4.788 V -13.12 H 5.303 v 7.272 c 0,1.091 -0.091,1.666 -0.364,2.121 -0.363,0.636 -1.182,1.03 -2.151,1.03 C 0.909,-2.697 0,-3.848 0,-6.333 V -13.12 H -3.666 V 0 Z" /></g><g
           transform="translate(196.791,16.0983)"
           id="g76"><path
             id="path78"
             style="fill:#00b8c1;fill-opacity:1;fill-rule:nonzero;stroke:none"
             d="m 0,0 c 0,-2.06 1.667,-3.696 3.697,-3.696 1.999,0 3.666,1.666 3.666,3.635 0,2.091 -1.636,3.728 -3.666,3.728 C 1.636,3.667 0,2.03 0,0 m 10.575,-6.09 c 0,-2.697 -0.334,-3.909 -1.485,-5.212 -1.273,-1.514 -3.212,-2.302 -5.514,-2.302 -2.667,0 -4.667,0.939 -6.03,2.878 -0.636,0.909 -0.879,1.545 -1,2.606 h 3.999 c 0.364,-1.546 1.425,-2.363 3.091,-2.363 0.939,0 1.848,0.363 2.454,0.969 0.515,0.545 0.818,1.485 0.818,2.727 v 1.97 C 5.545,-6.393 4.303,-6.999 2.455,-6.999 c -3.606,0 -6.242,2.848 -6.242,6.817 0,4.121 2.727,7.151 6.423,7.151 1.818,0 3.03,-0.606 4.272,-2.121 v 1.697 h 3.667 z" /></g><g
           transform="translate(30.6992,70.9484)"
           id="g80"><path
             id="path82"
             style="fill:#00b8c1;fill-opacity:1;fill-rule:nonzero;stroke:none"
             d="M 0,0 -30.699,-17.724 V -53.172 L 0,-70.896 30.699,-53.172 v 35.448 z M 0,-5.121 26.265,-20.284 V -50.612 L 0,-65.776 -26.265,-50.612 v 30.327 z" /></g><g
           transform="translate(23.5913,25.1506)"
           id="g84"><path
             id="path86"
             style="fill:#00b8c1;fill-opacity:1;fill-rule:nonzero;stroke:none"
             d="M 0,0 H -4.31 L 5.993,20.699 h 4.31 z" /></g><g
           transform="translate(40.0254,25.1506)"
           id="g88"><path
             id="path90"
             style="fill:#00b8c1;fill-opacity:1;fill-rule:nonzero;stroke:none"
             d="M 0,0 H -4.31 L 5.993,20.699 h 4.31 z" /></g><g
           transform="translate(15.3794,25.1506)"
           id="g92"><path
             id="path94"
             style="fill:#00b8c1;fill-opacity:1;fill-rule:nonzero;stroke:none"
             d="m 0,0 h -4.31 l 5.152,10.35 h 4.31 z" /></g><g
           transform="translate(36.9624,35.4982)"
           id="g96"><path
             id="path98"
             style="fill:#00b8c1;fill-opacity:1;fill-rule:nonzero;stroke:none"
             d="m 0,0 h -4.31 l 5.152,10.349 h 4.31 z" /></g></g></g></g></svg>